<?xml version="1.0" encoding="UTF-8"?>
<svg width="112px" height="80px" viewBox="0 0 112 80" version="1.1" xmlns="http://www.w3.org/2000/svg" xmlns:xlink="http://www.w3.org/1999/xlink">
    <!-- Generator: Sketch 64 (93537) - https://sketch.com -->
    <title>Logo_UniGather</title>
    <desc>Created with Sketch.</desc>
    <g id="Page-1" stroke="none" stroke-width="1" fill="none" fill-rule="evenodd">
        <g id="1" transform="translate(-132.000000, -179.000000)" fill="#FF6F20">
            <g id="Logo_UniGather" transform="translate(132.000000, 179.000000)">
                <path d="M68.6995613,63.5806968 C69.2569806,63.5806968 69.6709161,63.0666323 69.5589161,62.5205677 C68.3439484,56.597471 66.7904,52.7425032 65.4216258,52.3512774 L60.4017548,50.8503742 L60.298529,50.5917935 C60.2469161,50.3848258 60.0394323,50.1778581 59.7808516,49.9708903 L59.2636903,49.6085677 L59.6776258,49.1430194 C60.0915613,48.6769548 60.4017548,48.2630194 60.6087226,47.9528258 C61.1780129,47.1244387 61.6440774,46.2449548 62.0064,45.365471 C62.1612387,45.0031484 62.3165935,44.6408258 62.4203355,44.2785032 L62.4719484,44.1231484 L62.5751742,44.0199226 C62.9374968,43.7092129 63.0928516,43.2952774 63.0928516,42.8813419 L63.0928516,41.3804387 C63.0928516,41.0702452 62.9891097,40.7595355 62.834271,40.5009548 L62.730529,40.3456 L62.730529,38.0684387 C62.730529,34.7099871 59.9826581,31.9621161 56.6242065,31.9621161 L54.4507871,31.9621161 C51.0923355,31.9621161 48.3444645,34.7099871 48.3444645,38.0684387 L48.3444645,40.3456 L48.2412387,40.5009548 C48.0337548,40.7595355 47.9821419,41.0702452 47.9821419,41.3804387 L47.9821419,42.8813419 C47.9821419,43.2952774 48.1891097,43.7608258 48.4998194,44.0199226 L48.6030452,44.1231484 L48.6551742,44.2785032 C48.7584,44.6408258 48.9137548,45.0031484 49.0691097,45.365471 C49.4309161,46.2449548 49.8969806,47.1244387 50.466271,47.9528258 C50.7764645,48.3667613 51.0871742,48.7806968 51.3978839,49.1430194 L51.8118194,49.6085677 L51.2941419,49.9708903 C51.0355613,50.1778581 50.8285935,50.3848258 50.7764645,50.5917935 L50.6732387,50.8503742 L45.6533677,52.3512774 C44.2835613,52.7425032 42.7749161,56.5107613 41.5212387,62.5190194 C41.4071742,63.0650839 41.8226581,63.5806968 42.3800774,63.5806968 L68.6995613,63.5806968 Z" id="Stroke-1"></path>
                <path d="M34.1334194,63.5806968 C35.0629677,63.5806968 35.7612903,62.7223742 35.5651613,61.8139871 C34.3744516,56.2924387 32.8905806,52.7265032 31.5765161,52.3512774 L26.5571613,50.8503742 L26.4534194,50.5917935 C26.4018065,50.3848258 26.1948387,50.1778581 25.9362581,49.9708903 L25.4185806,49.6085677 L25.8325161,49.1430194 C26.2464516,48.6769548 26.5571613,48.2630194 26.764129,47.9528258 C27.3334194,47.1244387 27.7989677,46.2449548 28.1612903,45.365471 C28.3166452,45.0031484 28.472,44.6408258 28.5752258,44.2785032 L28.6268387,44.1231484 L28.7305806,44.0199226 C29.0929032,43.7092129 29.2477419,43.2952774 29.2477419,42.8813419 L29.2477419,41.3804387 C29.2477419,41.0702452 29.1445161,40.7595355 28.9891613,40.5009548 L28.8859355,40.3456 L28.8859355,38.0684387 C28.8859355,34.7099871 26.1380645,31.9621161 22.7796129,31.9621161 L20.6061935,31.9621161 C17.2477419,31.9621161 14.499871,34.7099871 14.499871,38.0684387 L14.499871,40.3456 L14.396129,40.5009548 C14.1891613,40.7595355 14.1375484,41.0702452 14.1375484,41.3804387 L14.1375484,42.8813419 C14.1375484,43.2952774 14.3445161,43.7608258 14.6547097,44.0199226 L14.7584516,44.1231484 L14.8100645,44.2785032 C14.9138065,44.6408258 15.0686452,45.0031484 15.224,45.365471 C15.5863226,46.2449548 16.0523871,47.1244387 16.6216774,47.9528258 C16.931871,48.3667613 17.2425806,48.7806968 17.5527742,49.1430194 L17.9667097,49.6085677 L17.4495484,49.9708903 C17.1904516,50.1778581 16.9834839,50.3848258 16.931871,50.5917935 L16.828129,50.8503742 L11.8087742,52.3512774 C10.4389677,52.7425032 8.93032258,56.5107613 7.67612903,62.5190194 C7.56258065,63.0650839 7.97806452,63.5806968 8.53548387,63.5806968 L34.1334194,63.5806968 Z" id="Stroke-3"></path>
                <path d="M102.54431,63.5806968 C103.101729,63.5806968 103.515665,63.0666323 103.403665,62.5205677 C102.188697,56.597471 100.635148,52.7425032 99.2663742,52.3512774 L94.2465032,50.8503742 L94.1432774,50.5917935 C94.0916645,50.3848258 93.8841806,50.1778581 93.6256,49.9708903 L93.1084387,49.6085677 L93.5223742,49.1430194 C93.9363097,48.6769548 94.2465032,48.2630194 94.453471,47.9528258 C95.0227613,47.1244387 95.4888258,46.2449548 95.8506323,45.365471 C96.0059871,45.0031484 96.1613419,44.6408258 96.2645677,44.2785032 L96.3166968,44.1231484 L96.4199226,44.0199226 C96.7822452,43.7092129 96.9376,43.2952774 96.9376,42.8813419 L96.9376,41.3804387 C96.9376,41.0702452 96.8343742,40.7595355 96.6790194,40.5009548 L96.5752774,40.3456 L96.5752774,38.0684387 C96.5752774,34.7099871 93.8274065,31.9621161 90.4689548,31.9621161 L88.2955355,31.9621161 C84.9370839,31.9621161 82.1892129,34.7099871 82.1892129,38.0684387 L82.1892129,40.3456 L82.0859871,40.5009548 C81.8785032,40.7595355 81.8268903,41.0702452 81.8268903,41.3804387 L81.8268903,42.8813419 C81.8268903,43.2952774 82.0338581,43.7608258 82.3445677,44.0199226 L82.4477935,44.1231484 L82.4999226,44.2785032 C82.6031484,44.6408258 82.7585032,45.0031484 82.9138581,45.365471 C83.2761806,46.2449548 83.741729,47.1244387 84.3110194,47.9528258 C84.6212129,48.3667613 84.9319226,48.7806968 85.2426323,49.1430194 L85.6565677,49.6085677 L85.1388903,49.9708903 C84.8803097,50.1778581 84.6733419,50.3848258 84.6212129,50.5917935 L84.5179871,50.8503742 L79.4981161,52.3512774 C78.1283097,52.7425032 76.6196645,56.5107613 75.3659871,62.5190194 C75.2519226,63.0650839 75.6674065,63.5806968 76.2253419,63.5806968 L102.54431,63.5806968 Z" id="Stroke-5"></path>
                <path d="M39.1824,24.2 C42.6879484,24.2 45.5565935,27.068129 45.5565935,30.5741935 L45.5565935,32.5834839 L45.6598194,32.7383226 C45.8667871,32.9974194 45.9189161,33.3076129 45.9189161,33.6183226 L45.9189161,35.1192258 C45.9189161,35.5331613 45.7114323,35.9987097 45.4012387,36.2572903 L45.2974968,36.3610323 L45.2458839,36.5163871 C45.1426581,36.8781935 44.9873032,37.2405161 44.8319484,37.6028387 C44.4696258,38.4828387 44.0040774,39.3623226 43.4347871,40.1901935 C43.1240774,40.604129 42.8138839,41.0180645 42.5031742,41.3803871 L42.0892387,41.8464516 L42.6069161,42.2087742 C42.8654968,42.4152258 43.0724645,42.6227097 43.1240774,42.8296774 L43.2278194,43.0882581 L45.1875613,43.7287742 C45.6990452,43.896 46.1656258,44.1938065 46.5057548,44.6108387 C47.9431742,46.371871 48.3359484,48.3945806 48.4288516,49.0381935 C48.4464,49.1610323 48.3762065,49.2771613 48.2611097,49.3220645 L42.9171097,51.4196129 C41.8048516,51.7581935 40.602271,54.7636129 39.562271,58.7883871 C39.4316903,59.2941935 38.9728516,59.6477419 38.450529,59.6477419 C37.9282065,59.6477419 37.4693677,59.2941935 37.3387871,58.7883871 C36.2987871,54.7636129 35.0962065,51.7581935 33.9839484,51.4196129 L28.6399484,49.3220645 C28.5248516,49.2771613 28.4546581,49.1610323 28.4722065,49.0381935 C28.5651097,48.3945806 28.9578839,46.371871 30.3953032,44.6108387 C30.7354323,44.1938065 31.2020129,43.896 31.7140129,43.7287742 L33.6732387,43.0882581 L33.7769806,42.8296774 C33.8285935,42.6227097 34.0355613,42.4152258 34.2941419,42.2087742 L34.8118194,41.8464516 L34.3978839,41.3803871 C34.0871742,41.0180645 33.7769806,40.604129 33.466271,40.1901935 C32.8969806,39.3623226 32.4314323,38.4828387 32.0691097,37.6028387 C31.9137548,37.2405161 31.7584,36.8781935 31.6551742,36.5163871 L31.6035613,36.3610323 L31.4998194,36.2572903 C31.1896258,35.9987097 30.9826581,35.5331613 30.9826581,35.1192258 L30.9826581,33.6183226 C30.9826581,33.3076129 31.034271,32.9974194 31.2412387,32.7383226 L31.3444645,32.5834839 L31.3444645,30.5741935 C31.3444645,27.068129 34.2131097,24.2 37.7186581,24.2 L39.1824,24.2 Z" id="Stroke-7"></path>
                <path d="M73.5269161,24.2 C76.8853677,24.2 79.6332387,26.947871 79.6332387,30.3063226 L79.6332387,32.5834839 L79.7364645,32.7383226 C79.9439484,32.9974194 79.9955613,33.3076129 79.9955613,33.6183226 L79.9955613,35.1192258 C79.9955613,35.5331613 79.7885935,35.9987097 79.4778839,36.2572903 L79.3746581,36.3610323 L79.322529,36.5163871 C79.2193032,36.8781935 79.0639484,37.2405161 78.9085935,37.6028387 C78.546271,38.4828387 78.0807226,39.3623226 77.5114323,40.1901935 C77.2012387,40.604129 76.890529,41.0180645 76.5803355,41.3803871 L76.1658839,41.8464516 L76.6835613,42.2087742 C76.9421419,42.4152258 77.1491097,42.6227097 77.2012387,42.8296774 L77.3044645,43.0882581 L79.2642065,43.7287742 C79.7762065,43.896 80.242271,44.1938065 80.5829161,44.6108387 C82.3186581,46.7378065 82.5313032,49.2461935 82.5313032,49.2461935 L76.994271,51.4196129 C75.8639484,51.763871 74.6402065,54.8606452 73.5893677,58.9819355 C73.4897548,59.372129 73.1408516,59.6477419 72.738271,59.6477419 L72.3165935,59.6477419 C71.9140129,59.6477419 71.5645935,59.372129 71.4649806,58.9819355 C70.4141419,54.8606452 69.1909161,51.763871 68.0605935,51.4196129 L62.5235613,49.2461935 C62.5235613,49.2461935 62.7362065,46.7378065 64.4719484,44.6108387 C64.8125935,44.1938065 65.2786581,43.896 65.7906581,43.7287742 L67.7504,43.0882581 L67.8536258,42.8296774 C67.9052387,42.6227097 68.1122065,42.4152258 68.3713032,42.2087742 L68.8884645,41.8464516 L68.474529,41.3803871 C68.1643355,41.0180645 67.8536258,40.604129 67.5429161,40.1901935 C66.9736258,39.3623226 66.5080774,38.4828387 66.1457548,37.6028387 C65.9909161,37.2405161 65.8355613,36.8781935 65.7318194,36.5163871 L65.6802065,36.3610323 L65.5764645,36.2572903 C65.266271,35.9987097 65.0593032,35.5331613 65.0593032,35.1192258 L65.0593032,33.6183226 C65.0593032,33.3076129 65.1109161,32.9974194 65.3178839,32.7383226 L65.4216258,32.5834839 L65.4216258,30.3063226 C65.4216258,26.947871 68.1694968,24.2 71.5279484,24.2 L73.5269161,24.2 Z" id="Stroke-9"></path>
                <path d="M0.0644645161,72.9581935 L0.0644645161,78.3150968 C0.0644645161,78.7997419 0.45723871,79.1930323 0.9424,79.1930323 L110.13311,79.1930323 C110.617755,79.1930323 111.010529,78.7997419 111.010529,78.3150968 L111.010529,72.9581935 C111.010529,72.4735484 110.617755,72.0802581 110.13311,72.0802581 L104.776206,72.0802581 C104.291045,72.0802581 103.898271,71.6874839 103.898271,71.2023226 L103.898271,65.8454194 C103.898271,65.3607742 103.505497,64.968 103.020335,64.968 L8.05465806,64.968 C7.5700129,64.968 7.17723871,65.3607742 7.17723871,65.8454194 L7.17723871,71.2023226 C7.17723871,71.6874839 6.78394839,72.0802581 6.29930323,72.0802581 L0.9424,72.0802581 C0.45723871,72.0802581 0.0644645161,72.4735484 0.0644645161,72.9581935 Z" id="Stroke-11"></path>
                <path d="M100.485832,32.1420387 L103.305445,32.1420387 C103.79009,32.1420387 104.183381,31.7492645 104.183381,31.2641032 L104.183381,25.9072 C104.183381,25.4225548 104.576155,25.0292645 105.0608,25.0292645 L110.417703,25.0292645 C110.902348,25.0292645 111.295639,24.6364903 111.295639,24.1518452 L111.295639,18.5564903 C111.295639,18.175071 111.049961,17.8380387 110.687123,17.7208774 L56.0920258,0.106941935 C55.9165419,0.050683871 55.7281548,0.050683871 55.5531871,0.106941935 L0.957574194,17.7208774 C0.595251613,17.8380387 0.349574194,18.175071 0.349574194,18.5564903 L0.349574194,24.1518452 C0.349574194,24.6364903 0.742348387,25.0292645 1.22750968,25.0292645 L7.46183226,25.0292645 L7.46183226,31.2641032 C7.46183226,31.7492645 7.85512258,32.1420387 8.33976774,32.1420387 L10.1854452,32.1420387 L15.9991226,32.1229419 C16.1353806,32.0166194 16.2752516,31.9144258 16.4187355,31.8173935 C16.8192516,31.5464258 17.2460903,31.3141677 17.6909935,31.1252645 C18.1441548,30.9332645 18.616929,30.7861677 19.0989935,30.687071 C19.5944774,30.5853935 20.1002839,30.5342968 20.6060903,30.5342968 L22.7795097,30.5342968 C23.2853161,30.5342968 23.7911226,30.5853935 24.2866065,30.687071 C24.768671,30.7861677 25.240929,30.9332645 25.6946065,31.1252645 C26.2989935,31.3817806 26.8688,31.7188129 27.3859613,32.1229419 L29.9578323,32.1229419 L29.9578323,30.2653935 C29.9578323,29.7595871 30.008929,29.2537806 30.1106065,28.7582968 C30.2097032,28.2762323 30.3568,27.8039742 30.5488,27.3508129 C30.7377032,26.9053935 30.9699613,26.479071 31.240929,26.0780387 C31.5098323,25.6806194 31.8164129,25.3090065 32.1555097,24.9699097 C32.8368,24.2891355 33.6491871,23.7394581 34.5364129,23.3632 C34.9895742,23.1712 35.4618323,23.0241032 35.9438968,22.9250065 C36.4393806,22.823329 36.9451871,22.7722323 37.4509935,22.7722323 L39.4499613,22.7722323 C39.9557677,22.7722323 40.4615742,22.823329 40.9570581,22.9250065 C41.4396387,23.0241032 41.9118968,23.1712 42.3650581,23.3632 C42.8099613,23.5521032 43.2368,23.7843613 43.6373161,24.0558452 C44.0347355,24.3242323 44.4063484,24.6308129 44.7454452,24.9699097 C45.4267355,25.6512 45.9764129,26.4641032 46.3521548,27.3508129 C46.544671,27.8039742 46.6912516,28.2762323 46.7903484,28.7582968 C46.8920258,29.2537806 46.9431226,29.7595871 46.9431226,30.2653935 L46.9431226,32.1229419 L49.8437677,32.1229419 C49.9805419,32.0166194 50.1204129,31.9144258 50.2633806,31.8173935 C50.6638968,31.5464258 51.0907355,31.3141677 51.5361548,31.1252645 C51.9893161,30.9332645 52.4615742,30.7861677 52.9436387,30.687071 C53.4391226,30.5853935 53.944929,30.5342968 54.4507355,30.5342968 L56.6241548,30.5342968 C57.1299613,30.5342968 57.6357677,30.5853935 58.1312516,30.687071 C58.6133161,30.7861677 59.0860903,30.9332645 59.5392516,31.1252645 C60.1436387,31.3817806 60.7134452,31.7188129 61.2306065,32.1229419 C62.1653161,32.1229419 63.1000258,32.1224258 64.0347355,32.1224258 L64.0347355,30.2653935 C64.0347355,29.7595871 64.0858323,29.2537806 64.1880258,28.7582968 C64.2871226,28.2762323 64.4337032,27.8039742 64.6262194,27.3508129 C64.8151226,26.9053935 65.0473806,26.479071 65.3183484,26.0780387 C65.5872516,25.6806194 65.8938323,25.3090065 66.232929,24.9699097 C66.9142194,24.2891355 67.7266065,23.7394581 68.6133161,23.3632 C69.0664774,23.1712 69.5392516,23.0241032 70.0213161,22.9250065 C70.5168,22.823329 71.0226065,22.7722323 71.5284129,22.7722323 L73.5268645,22.7722323 C74.032671,22.7722323 74.5384774,22.823329 75.0339613,22.9250065 C75.5160258,23.0241032 75.9882839,23.1712 76.4419613,23.3632 C76.8868645,23.5521032 77.3137032,23.7843613 77.7142194,24.055329 C78.1116387,24.3242323 78.4832516,24.6308129 78.8223484,24.9699097 C79.5036387,25.6512 80.0533161,26.4641032 80.4295742,27.3508129 C80.6215742,27.8034581 80.768671,28.2762323 80.8677677,28.7582968 C80.9694452,29.2537806 81.0205419,29.7595871 81.0205419,30.2653935 L81.0205419,32.1234581 C81.9098323,32.1234581 82.7996387,32.1229419 83.688929,32.1229419 C83.8251871,32.0166194 83.9650581,31.9144258 84.1085419,31.8173935 C84.5090581,31.5464258 84.9358968,31.3141677 85.3808,31.1252645 C85.8339613,30.9332645 86.3062194,30.7861677 86.7888,30.687071 C87.2837677,30.5853935 87.7895742,30.5342968 88.2953806,30.5342968 L90.4688,30.5342968 C90.9746065,30.5342968 91.4804129,30.5853935 91.9758968,30.687071 C92.4584774,30.7861677 92.9307355,30.9332645 93.3838968,31.1252645 C93.9882839,31.3817806 94.5586065,31.7188129 95.0757677,32.1229419 L100.485832,32.1420387 Z" id="Stroke-13"></path>
            </g>
        </g>
    </g>
</svg>